# xmcd
#
# Track frame offsets: 
#        150
#        17628
#        32666
#        42975
#        60122
#        78481
#        97080
#        112829
#        128569
#        137518
#        160871
#        178472
#        196472
#        211123
#
# Disc length: 3027 seconds
#
# Revision: 0
# Processed by: cddbd v1.5.2PL0 Copyright (c) Steve Scherf et al.
# Submitted via: ExactAudioCopy v0.95a5
#
DISCID=b20bd10e
DTITLE=Casuarina - Certidão
DYEAR=1900
DGENRE=samba
TTITLE0=Certidão
TTITLE1=Vaso ruim
TTITLE2=Inconstante
TTITLE3=Dilemas do universo
TTITLE4=A roda morreu
TTITLE5=Teima quem quer
TTITLE6=Peçonha
TTITLE7=Arco-íris
TTITLE8=Me dá um nó
TTITLE9=É, João
TTITLE10=Tarja preta
TTITLE11=Onda de poeta
TTITLE12=Velho bandido
TTITLE13=Empoeirado (ao vivo)
EXTD=
EXTT0=
EXTT1=
EXTT2=
EXTT3=
EXTT4=
EXTT5=
EXTT6=
EXTT7=
EXTT8=
EXTT9=
EXTT10=
EXTT11=
EXTT12=
EXTT13=
PLAYORDER=
